<svg width="163" height="200" fill="none" xmlns="http://www.w3.org/2000/svg"><g opacity=".8" clip-path="url(#prefix__clip0_740_7989)"><path d="M136.364 9.7H23.814c-6.305 0-11.416 5.102-11.416 11.394v105.54c0 6.292 5.11 11.393 11.416 11.393h112.55c6.305 0 11.416-5.101 11.416-11.393V21.094c0-6.292-5.111-11.393-11.416-11.393z" fill="#9ED1FA" fill-opacity=".24"/><path d="M140.435.5H.5v95.682h139.935V.5z" fill="#9ED1FA"/><path d="M139.345 1.586H1.589v93.508h137.756V1.586z" fill="#fff"/><path d="M139.346 1.586H70.467v93.508h68.879V1.586z" fill="#EFF1F9"/><path d="M140.435.5H.5v7.534h139.935V.5z" fill="#9ED1FA"/><path d="M7.885 5.61c.894 0 1.619-.713 1.619-1.594 0-.88-.725-1.594-1.619-1.594-.893 0-1.618.714-1.618 1.594 0 .88.725 1.595 1.618 1.595zM14.015 5.61c.894 0 1.619-.713 1.619-1.594 0-.88-.725-1.594-1.619-1.594s-1.618.714-1.618 1.594c0 .88.724 1.595 1.618 1.595zM20.146 5.61c.893 0 1.618-.713 1.618-1.594 0-.88-.724-1.594-1.618-1.594-.894 0-1.619.714-1.619 1.594 0 .88.725 1.595 1.619 1.595z" fill="#fff"/><path d="M20.802 74.493h-1.413l-2.088-3.657v3.657h-1.42v-5.879h1.42l2.083 3.657v-3.657H20.8v5.879h.002zM26.687 71.675c0 .574-.107 1.08-.32 1.521-.213.441-.514.78-.908 1.02-.392.238-.84.358-1.341.358-.502 0-.946-.115-1.335-.346a2.36 2.36 0 01-.909-.988c-.217-.429-.33-.919-.342-1.473v-.332c0-.575.105-1.083.318-1.524.212-.44.515-.78.91-1.02s.844-.36 1.35-.36c.505 0 .944.119 1.335.356.39.238.695.574.912 1.013.217.438.327.939.33 1.503v.272zm-1.445-.246c0-.584-.097-1.028-.293-1.33a.942.942 0 00-.84-.455c-.71 0-1.088.534-1.129 1.599l-.003.432c0 .575.096 1.018.287 1.329.191.308.476.464.854.464.377 0 .635-.152.83-.456.194-.304.292-.742.294-1.313v-.27zM29.483 74.493v-5.879h1.897c.52 0 .988.118 1.403.354.415.236.74.568.974.998.233.43.351.91.354 1.444v.27c0 .538-.113 1.02-.342 1.447-.228.426-.549.76-.962 1-.415.241-.876.363-1.385.366h-1.94zm1.419-4.784v3.694h.494c.407 0 .72-.144.938-.433.219-.29.327-.72.327-1.29v-.254c0-.568-.108-.996-.327-1.284-.219-.288-.536-.432-.954-.432h-.478v-.001zM38.1 73.395h-1.946l-.34 1.098h-1.516l2.16-5.879h1.336l2.175 5.879h-1.524l-.343-1.098H38.1zM36.495 72.3h1.266l-.635-2.038-.631 2.038zM44.536 69.709H42.77v4.784h-1.42v-4.784h-1.734v-1.095h4.923v1.095h-.002zM47.995 73.395h-1.946l-.34 1.098h-1.516l2.16-5.879h1.336l2.175 5.879H48.34l-.343-1.098h-.002zM46.39 72.3h1.266l-.635-2.038-.631 2.038z" fill="#9ED1FA"/><path d="M41.85 18.784H14.936V61.96h34.758V29.307L41.85 18.784z" fill="#F7BA1E"/><path d="M41.85 18.784v10.47l7.845.053-7.844-10.523z" fill="#F8981D"/><path d="M26.36 34.162a2.177 2.177 0 002.18-2.175c0-1.2-.976-2.174-2.18-2.174a2.177 2.177 0 00-2.178 2.174c0 1.201.975 2.175 2.178 2.175zM38.27 34.162a2.177 2.177 0 002.18-2.175c0-1.2-.976-2.174-2.18-2.174a2.177 2.177 0 00-2.179 2.174c0 1.201.976 2.175 2.18 2.175zM40.09 43.508a.775.775 0 01-.92-.293c-.64-.963-2.473-2.898-6.855-2.898-4.382 0-6.203 1.93-6.85 2.894a.78.78 0 01-.92.297h-.003a.771.771 0 01-.37-1.153c.858-1.286 3.104-3.59 8.145-3.59 5.041 0 7.283 2.303 8.145 3.59a.774.774 0 01-.37 1.153h-.002z" fill="#fff"/><path d="M88.605 26.69s2.912-5.399 4.785-6.957c1.873-1.557 5.15-2.907 5.15-2.907l3.946 13.13s-3.01 2.458-6.494 3.178c-3.485.72-3.746.57-3.746.57l-3.641-7.015z" fill="#FAC7D2"/><path d="M102.553 52.229S76.74 45.967 76.73 45.21c-.011-.756 11.55-7.85 14.157-9.112 2.607-1.259 4.635-2.105 4.39-2.916-.244-.812-5.085-8.716-6.653-8.344-1.57.372-4.53 1.405-4.934 1.584-.405.18-20.597 7.458-25.118 9.329-4.522 1.87-4.512 6.585-4.491 8.04.02 1.455 1.312 7.296 2.085 8.333.773 1.036 23.145 14.021 26.595 15.989 3.45 1.968 13.694 5.854 13.694 5.854l6.099-21.742-.001.004z" fill="#0B6FC1"/><path d="M96.995 56.075s6.324 13.127 15.208 14.455c8.881 1.332 12.555-15.6 12.555-15.6s-3.608-4.102-4.113-8.71c-.125-1.142-.053-2.374.118-3.574.53-3.64 2.032-7.017 2.032-7.017l-13.156.492s.008.467-.363 8.332c-.089 1.892-.608 3.761-1.35 5.51-2.328 5.513-10.93 6.112-10.93 6.112h-.001z" fill="#FAC7D2"/><path d="M107.926 49.965c.796 2.192 1.601 4.208 2.001 4.606.954.942 5.176-2.124 8.356-6.904.922-1.388 1.761-3.177 2.48-5.02.53-3.639 2.032-7.016 2.032-7.016l-13.156.491s.008.468-.363 8.333c-.089 1.892-.608 3.76-1.35 5.51z" fill="#F27483"/><path d="M97.46 29.7s-3.098-6.414-2.247-10.011c.85-3.598 3.979-5.698 3.979-5.698s1.07-5.82 7.294-7.185c6.224-1.364 9.382 2.27 9.382 2.27s5.174-.522 9.801 3.98c4.626 4.502 2.185 11.609 2.185 11.609s1.763.527 1.771 4.598c.008 4.07-2.607 9.445-10.012 13.564C112.208 46.947 97.46 29.7 97.46 29.7z" fill="#252560"/><path d="M99.136 45.726c2.124 4.62 4.261 5.172 6.569 5.314 2.306.144 4.031-.295 4.852-.394h.003c2.722-.87 5.56-2.152 6.858-3.418 1.963-1.904 4.084-6.7 4.291-7.181l.017-.038s5.3 1.586 6.501-1.15c1.192-2.738-.054-4.515-1.578-5.325-1.534-.803-4.198-.787-4.551-.28-.348.495-.787 3.142-1.205 3.245-.412.109-.917.105-1.092-.2-.071-.121.045-1.386.209-2.923.125-.728.204-1.59.266-2.35.141-1.192.275-2.287.353-2.893 0 0-2.433.587-6.505-.82-4.071-1.406-6.784-3.172-6.784-3.172s-6.649.982-9.232-.512c0 0-.75 5.07-.639 6.644.114 1.58.425 2.668.096 4-.104.414-.207.967-.284 1.644v.017c-.016.307-.204 5.319 1.855 9.795v-.003z" fill="#FAC7D2"/><path d="M124.352 39.408c-.883-.002-1.147-.406-1.225-.65-.118-.366.047-.767.42-1.024l.106-.07c.59-.397.567-.489.459-.663-.079-.128-.138-.156-.146-.156-.042 0-.149.075-.214.178a2.475 2.475 0 00-.222.437.44.44 0 01-.831-.293c.01-.028.102-.281.306-.61.172-.273.527-.591.964-.591.247 0 .6.1.893.57.606.97-.319 1.593-.714 1.858l-.099.066a.203.203 0 00-.031.025c.065.022.185.047.384.042.385-.008 1.38-.678 1.785-1.614.29-.67.195-1.275-.283-1.802-.341-.376-.687-.549-1.066-.526-.893.05-1.701 1.137-1.709 1.148a.44.44 0 11-.716-.514c.042-.058 1.054-1.44 2.376-1.512.656-.035 1.246.238 1.769.813.71.784.867 1.758.441 2.742-.523 1.21-1.792 2.13-2.578 2.144h-.063l-.006.002z" fill="#F27483"/><path d="M110.615 34.927c.565-.048.962-.782.889-1.639-.074-.856-.591-1.512-1.155-1.463-.564.048-.962.782-.889 1.638.074.857.591 1.512 1.155 1.464zM101.687 34.917c.517-.044.883-.697.818-1.458-.065-.76-.538-1.34-1.055-1.297-.517.045-.883.697-.817 1.458.065.76.537 1.341 1.054 1.297z" fill="#053861"/><path d="M110.052 33.47c.239-.021.406-.342.374-.717-.032-.376-.252-.664-.49-.643-.239.02-.407.34-.375.716.032.376.252.664.491.643zM101.087 33.818c.239-.02.407-.34.375-.716-.032-.376-.252-.664-.491-.643-.239.02-.406.341-.374.716.032.376.252.664.49.643z" fill="#fff"/><path d="M105.14 40.818c-.617 0-1.84-.11-2.375-.912-.733-1.098.111-1.824.924-2.527l.228-.197c.595-.52.394-1.736.266-2.162a.441.441 0 01.844-.255c.026.084.616 2.079-.53 3.08l-.233.202c-.938.808-1.032.975-.766 1.373.341.51 1.534.54 1.923.509a.44.44 0 01.071.878c-.047.003-.174.013-.352.01z" fill="#F27483"/><path d="M112.053 30.707a.436.436 0 01-.29-.11c-.841-.736-2.246-.456-2.26-.453a.44.44 0 11-.183-.862c.074-.016 1.847-.378 3.024.652a.44.44 0 01-.291.77v.003zM99.867 30.986a.438.438 0 01-.395-.632c.282-.572 1.254-1.526 2.929-1.04a.44.44 0 11-.245.845c-1.341-.388-1.84.486-1.892.587a.444.444 0 01-.395.239l-.002.001z" fill="#053861"/><path d="M104.647 44.166c.004 1.303 1.384 2.356 3.085 2.35.894-.004 1.699-.298 2.261-.767.504-.422.812-.985.81-1.602-.001-.618-.311-1.177-.816-1.594-.564-.47-1.372-.76-2.268-.759-.914.004-1.732.31-2.294.798-.253.216-.452.47-.585.748a1.84 1.84 0 00-.191.823l-.002.003z" fill="#CA4B5D"/><path d="M105.425 42.593c.672.058 1.392.089 2.138.086a24.123 24.123 0 002.422-.126c-.563-.47-1.372-.76-2.268-.759-.913.004-1.732.31-2.294.798l.002.001z" fill="#fff"/><path d="M104.647 44.166c.004 1.303 1.384 2.356 3.085 2.35.894-.004 1.699-.298 2.261-.767-1.061-1.382-2.963-2.328-5.153-2.407a1.84 1.84 0 00-.191.823l-.002.001z" fill="#F27483"/><path d="M83.066 146.231c0 .773.426 1.486 1.111 1.853 4.663 2.496 13.059 5.416 26.827 5.416 19.148 0 29.845-3.738 33.406-5.261a2.108 2.108 0 001.283-1.992c-.078-3.03-.233-6.897-.541-11.289-.606-8.643-3.271-21.501-4.266-26.088-.217-1.009-1.059-1.731-2.046-1.756-8.871-.228-50.189-.579-53.129 12.452-2.325 10.312-2.653 21.171-2.645 26.665z" fill="#053861"/><path d="M104.676 140.993c3.289 2.557 6.905 4.672 10.694 6.4a62.91 62.91 0 003.399 1.431c.291.113.418-.355.129-.467-3.91-1.52-7.683-3.419-11.169-5.754a47.048 47.048 0 01-2.709-1.953c-.245-.189-.59.152-.344.343z" fill="#4057A7"/><path d="M109.968 144.503c.461 2.871.865 5.739 1.605 8.556.079.302.548.172.468-.13-.74-2.816-1.143-5.684-1.605-8.556-.05-.307-.519-.176-.468.13zM105.828 149.595l3.83 3.494c.23.21.575-.132.343-.342l-3.829-3.494c-.23-.21-.575.132-.344.342z" fill="#4057A7"/><path d="M145.582 131.029c-.857 2.957-16.074 6.275-33.905 6.058-17.831-.218-27.19-4.976-28.2-6.465-.989-1.457.116-8.112.164-8.401v-.01c.412-5.349 1.442-13.205 1.442-13.205.128-3.348.35-8.425.57-10.612.154-1.522.274-3.543.359-5.81.056-1.485.097-3.076.123-4.697.02-1.402.034-2.825.035-4.228v-.155c0-3.28.358-9.89 1.142-15.369.352-2.474.793-4.716 1.326-6.315.396-3.526 1.655-5.875 2.263-6.747.666-.952 8.05-2.192 12.577-2.87 2.045-.308 3.508-.5 3.508-.5.021-.01.04-.018.055-.028l.048-.026c.007 0 .012-.005.015-.006.01-.005.013-.007.016-.007v.003c-.107.156-3.646 2.317-2.969 4.238.387 1.1.585 1.727 3.535 1.733 8.116.016 13.833-7.925 13.975-8.151 0 0 1.04.35 2.576.893 2.983 1.06 7.836 2.853 10.558 4.23 4.123 2.087 6.018 3.06 6.018 3.06L139.742 94.2v.022c-.029 3.591 1.184 10.79 2.344 17.805 0 0 0 .004.004.01.119.443 4.341 16.077 3.494 18.99l-.002.002z" fill="#3EA2F4"/><path d="M121.863 53.077l-.285 1.185c-.029.123.039.268.17.3.131.03.267-.038.3-.17.095-.395.189-.791.285-1.186.029-.123-.039-.268-.17-.299-.131-.03-.268.037-.3.17zM120.575 55.607c-1.55 2.05-3.674 3.636-6.021 4.666a16.07 16.07 0 01-3.77 1.123c-1.479.251-3.033.319-4.5-.038-1.468-.358-2.767-1.111-3.522-2.375-.161-.269-.58-.024-.42.244 1.58 2.645 5.045 3.098 7.836 2.744 2.791-.355 5.359-1.365 7.583-2.972a15.194 15.194 0 003.234-3.15c.188-.248-.234-.491-.42-.244v.002zM100.524 54.873c.085.464.248.91.474 1.324.059.112.225.157.332.087a.247.247 0 00.087-.331 3.483 3.483 0 01-.256-.57 4.121 4.121 0 01-.168-.64c-.023-.124-.182-.206-.3-.17-.134.045-.194.166-.17.3h.001zM100.63 60.496c.283.53.724.943 1.197 1.305.508.39 1.051.74 1.602 1.068a21.132 21.132 0 003.557 1.688c.295.109.422-.36.13-.467a20.351 20.351 0 01-3.379-1.6 18.488 18.488 0 01-1.502-.985c-.483-.354-.909-.736-1.186-1.253-.147-.275-.567-.03-.419.244zM120.076 70.7a58.088 58.088 0 01-6.611 7.984 60.91 60.91 0 01-7.98 6.79 62.777 62.777 0 01-5.028 3.23c-.271.156-.026.575.244.418a62.761 62.761 0 008.761-6.106 59.927 59.927 0 007.488-7.423 58.256 58.256 0 003.546-4.65c.177-.258-.243-.5-.42-.244zM103.834 83.495a17.135 17.135 0 01-5.428 4.27c-.28.14-.034.56.244.419a17.456 17.456 0 005.528-4.344c.199-.238-.143-.582-.344-.343v-.002zM105.953 87.853a38.468 38.468 0 01-1.116 4.129c-.099.297.371.425.468.13a38.239 38.239 0 001.117-4.13c.064-.304-.404-.435-.469-.13zM90.23 69.41a106.345 106.345 0 0013.467 1.834c.312.023.311-.462 0-.485a105.054 105.054 0 01-13.338-1.816c-.304-.06-.436.406-.13.468zM90.835 90.92l3.271 1.337c.123.05.266-.055.3-.17.04-.14-.049-.249-.17-.3l-3.271-1.336c-.123-.05-.266.055-.3.17-.04.139.049.249.17.299zM137.103 97.087a69.696 69.696 0 01-11.483 5.814 72.883 72.883 0 01-19.72 4.755c-.308.029-.311.515 0 .485a73.62 73.62 0 0012.957-2.438 71.876 71.876 0 0012.147-4.655 69.35 69.35 0 006.345-3.54c.264-.167.021-.586-.245-.42h-.001zM117.149 110.251a13.894 13.894 0 01-3.428.312c-.312-.01-.312.475 0 .485a14.45 14.45 0 003.556-.328c.305-.067.177-.536-.129-.468l.001-.001zM107.398 110.625c-2.961-.546-5.924-1.093-8.885-1.637-.306-.057-.438.41-.13.467l8.886 1.638c.306.056.437-.411.129-.468z" fill="#0B6FC1"/><path d="M124.235 50.353c-1.806 3.21-7.151 10.966-16.419 10.507-9.836-.485-5.835-6.717-4.34-8.657 2.045-.308 3.508-.5 3.508-.5.021-.01.04-.018.055-.028.018-.01.035-.017.048-.025.007 0 .012-.005.015-.007.01-.005.013-.006.016-.006v.003c-.107.155-3.646 2.317-2.969 4.237.387 1.101.585 1.727 3.535 1.733 8.116.017 13.833-7.925 13.975-8.151 0 0 1.04.35 2.576.894z" fill="#fff"/><path d="M76.272 44.944a12.768 12.768 0 01-5.212 5.867 12.29 12.29 0 01-2.05.965c-.292.105-.166.574.13.467a13.284 13.284 0 006.43-5.017c.436-.643.812-1.327 1.123-2.038.123-.283-.295-.53-.42-.244h-.001z" fill="#0B6FC1"/><path d="M76.478 45.2a18.12 18.12 0 01-1.59 3.906c-.151.274.268.52.419.245a18.683 18.683 0 001.64-4.023c.083-.3-.386-.43-.469-.13v.002z" fill="#0B6FC1"/><path d="M97.331 29.447a11.372 11.372 0 00-.073 3.357c.017.13.1.24.243.242.119 0 .26-.113.243-.242a10.939 10.939 0 01.056-3.228c.051-.305-.417-.436-.469-.129z" fill="#F27483"/><path d="M143.675 120.296s-1.588 9.967-3.491 11.813c-1.904 1.847-3.226 2.215-3.411 2.555-.184.339-.524 3.02-1.705 3.456-1.181.437-1.113-1.094-1.07-1.5.044-.406 1.308-4.208 1.308-4.208l1.377-1.452-2.774 1.033s-3.729 3.938-4.298 3.731c-.568-.207-1.336-.853-1.54-1.697l-.204-.843s-1.507.709-1.876-.869c-.371-1.58.324-2.531.73-3.101.407-.571 3.775-4.362 3.775-4.362s-3.258.108-3.813-.927c-.556-1.034-.03-1.337.604-1.267.633.068 4.57-1.25 4.57-1.25l3.146-3.814 8.668 2.7.004.002z" fill="#FAC7D2"/><path d="M139.338 56.561c-3.943-.803-8.013 1.376-9.493 4.983-1.061 2.585-1.405 6.3.881 11.245 5.056 10.942 14.066 23.195 13.355 24.666-.713 1.47-10.991 19.338-11.1 21.709-.109 2.371 9.027 6.876 11.372 5.62 2.346-1.256 18.498-24.451 18.141-29.427-.356-4.975-7.478-17.062-12.688-26.885-3.763-7.094-6.225-11.047-10.467-11.91h-.001z" fill="#0B6FC1"/><path d="M130.216 59.24c-1.68 1.79-2.287 4.307-2.059 6.706.055.586.131 1.185.324 1.743.107.31.233.613.361.914.388.915.814 1.814 1.243 2.71.591 1.233 1.2 2.46 1.816 3.682a485.138 485.138 0 002.201 4.32 861.76 861.76 0 004.715 8.999 720.039 720.039 0 002.132 3.982 354.36 354.36 0 001.704 3.131c.351.639.703 1.28 1.072 1.908.047.081.096.162.144.241.164.265.585.021.42-.244-.313-.504-.596-1.028-.884-1.547a287.266 287.266 0 01-1.544-2.822 592.737 592.737 0 01-2.02-3.76 858.054 858.054 0 01-4.658-8.853 556.32 556.32 0 01-2.245-4.375 308.042 308.042 0 01-1.941-3.888c-.488-.998-.969-2-1.424-3.012a31.073 31.073 0 01-.254-.58l-.093-.219-.097-.236a7.42 7.42 0 01-.258-.72c-.259-.934-.317-1.957-.262-2.92.068-1.184.361-2.366.932-3.41a6.8 6.8 0 011.017-1.407c.214-.228-.13-.57-.344-.343h.002zM155.374 94.923c-3.058-.058-6.261-.088-9.062 1.317a8.448 8.448 0 00-1.934 1.328c-.201.184.061.533.294.381.692-.452 1.572-.221 2.302.005.935.288 1.857.613 2.769.965.292.114.418-.355.13-.467a36.525 36.525 0 00-2.95-1.02c-.809-.236-1.748-.39-2.497.099l.295.381c2.142-1.97 5.181-2.453 7.987-2.516.887-.019 1.777-.003 2.666.013.313.007.313-.478 0-.485v-.001zM146.858 121.461a34.656 34.656 0 00-8.123-4.704 35.752 35.752 0 00-2.553-.935c-.298-.097-.426.372-.129.467a34.433 34.433 0 018.333 3.991c.729.48 1.44.987 2.129 1.524.243.189.589-.15.343-.343z" fill="#0B6FC1"/><path d="M128.262 133.594c.132-.569.614-1.004 1.013-1.404.398-.399.837-.795 1.294-1.146.903-.695 1.912-1.272 2.997-1.635a8.13 8.13 0 011.883-.391c.309-.026.312-.511 0-.485-2.471.204-4.69 1.509-6.425 3.222-.488.482-1.071 1.019-1.23 1.711-.07.304.399.433.468.129v-.001zM126.221 131.416c.915-.88 1.824-1.769 2.751-2.637.832-.781 1.714-1.517 2.763-1.989.286-.127.038-.546-.244-.418-1.063.478-1.965 1.228-2.811 2.017-.946.883-1.869 1.79-2.801 2.686-.225.216.118.559.344.342l-.002-.001z" fill="#F27483"/><path d="M56.757 105.972c5.418 0 9.81-4.383 9.81-9.79 0-5.406-4.392-9.789-9.81-9.789-5.417 0-9.809 4.383-9.809 9.79 0 5.406 4.392 9.789 9.81 9.789z" fill="#F44336"/><path d="M58.925 96.393a.298.298 0 010-.422l2.616-2.611a.298.298 0 000-.422l-1.535-1.533a.3.3 0 00-.423 0l-2.616 2.611a.3.3 0 01-.423 0l-2.617-2.61a.3.3 0 00-.422 0l-1.536 1.532a.298.298 0 000 .422l2.616 2.61a.298.298 0 010 .423l-2.616 2.61a.298.298 0 000 .423l1.536 1.532a.299.299 0 00.422 0l2.617-2.61a.3.3 0 01.423 0l2.616 2.61a.299.299 0 00.423 0l1.535-1.532a.298.298 0 000-.422l-2.616-2.611z" fill="#fff"/><path d="M37.029 104.421H24.703v22.159H42.54v-14.765l-5.511-7.394z" fill="#3EA2F4"/><path d="M37.029 104.421v7.355l5.511.039-5.511-7.394z" fill="#9ED1FA"/><path d="M30.648 115.577a.107.107 0 010-.152l.946-.944a.107.107 0 000-.152l-.556-.555a.108.108 0 00-.152 0l-.946.944a.108.108 0 01-.152 0l-.946-.944a.108.108 0 00-.153 0l-.555.555a.107.107 0 000 .152l.946.944a.107.107 0 010 .152l-.946.944a.107.107 0 000 .152l.555.555c.042.042.11.042.153 0l.946-.945a.108.108 0 01.152 0l.946.945c.042.042.11.042.152 0l.556-.555a.107.107 0 000-.152l-.946-.944zM36.895 115.577a.107.107 0 010-.152l.945-.944a.107.107 0 000-.152l-.555-.555a.108.108 0 00-.152 0l-.947.944a.108.108 0 01-.152 0l-.946-.944a.108.108 0 00-.152 0l-.556.555a.107.107 0 000 .152l.946.944a.107.107 0 010 .152l-.946.944a.107.107 0 000 .152l.556.555c.042.042.11.042.152 0l.946-.945a.108.108 0 01.153 0l.946.945c.042.042.11.042.152 0l.556-.555a.107.107 0 000-.152l-.947-.944z" fill="#fff"/></g><defs><clipPath id="prefix__clip0_740_7989"><path fill="#fff" transform="translate(.5 .5)" d="M0 0h162v153H0z"/></clipPath></defs></svg>
